<svg width="50" height="50" viewBox="0 0 50 50" fill="none" xmlns="http://www.w3.org/2000/svg">
<rect width="50" height="50" fill="#EFEFEF"/>
<path d="M38.6063 32.2734C39.1313 32.7984 39.1313 33.6516 38.6063 34.1766L34.1766 38.6063C33.6516 39.1313 32.7984 39.1313 32.2734 38.6063L25 31.2672L17.7266 38.6063C17.2016 39.1313 16.3484 39.1313 15.8234 38.6063L11.3938 34.1766C10.8687 33.6516 10.8687 32.7984 11.3938 32.2734L18.7328 25L11.3938 17.7266C10.8687 17.2016 10.8687 16.3484 11.3938 15.8234L15.8234 11.3938C16.3484 10.8687 17.2016 10.8687 17.7266 11.3938L25 18.7328L32.2734 11.3938C32.7984 10.8687 33.6516 10.8687 34.1766 11.3938L38.6063 15.8234C39.1313 16.3484 39.1313 17.2016 38.6063 17.7266L31.2672 25L38.6063 32.2734Z" fill="black"/>
</svg>
