<svg width="50" height="50" viewBox="0 0 50 50" fill="none" xmlns="http://www.w3.org/2000/svg">
<rect width="50" height="50" fill="#EFEFEF"/>
<path d="M42.6429 32.4H7.35714C6.99721 32.4 6.65201 32.5212 6.3975 32.7368C6.14298 32.9525 6 33.245 6 33.55V35.85C6 36.155 6.14298 36.4475 6.3975 36.6632C6.65201 36.8788 6.99721 37 7.35714 37H42.6429C43.0028 37 43.348 36.8788 43.6025 36.6632C43.857 36.4475 44 36.155 44 35.85V33.55C44 33.245 43.857 32.9525 43.6025 32.7368C43.348 32.5212 43.0028 32.4 42.6429 32.4ZM42.6429 23.2H7.35714C6.99721 23.2 6.65201 23.3212 6.3975 23.5368C6.14298 23.7525 6 24.045 6 24.35V26.65C6 26.955 6.14298 27.2475 6.3975 27.4632C6.65201 27.6788 6.99721 27.8 7.35714 27.8H42.6429C43.0028 27.8 43.348 27.6788 43.6025 27.4632C43.857 27.2475 44 26.955 44 26.65V24.35C44 24.045 43.857 23.7525 43.6025 23.5368C43.348 23.3212 43.0028 23.2 42.6429 23.2ZM42.6429 14H7.35714C6.99721 14 6.65201 14.1212 6.3975 14.3368C6.14298 14.5525 6 14.845 6 15.15V17.45C6 17.755 6.14298 18.0475 6.3975 18.2632C6.65201 18.4788 6.99721 18.6 7.35714 18.6H42.6429C43.0028 18.6 43.348 18.4788 43.6025 18.2632C43.857 18.0475 44 17.755 44 17.45V15.15C44 14.845 43.857 14.5525 43.6025 14.3368C43.348 14.1212 43.0028 14 42.6429 14Z" fill="black"/>
</svg>
